<svg preserveAspectRatio="none" overflow="visible" style="display: block;" width="52.1787" height="7.48701" viewBox="0 0 52.1787 7.48701" fill="none" xmlns="http://www.w3.org/2000/svg">
<g id="Group">
<path id="Vector" d="M18.318 1.5753H17.9232L17.7663 1.22253H17.0471L16.8982 1.5753H16.5126L17.2132 0.0244673H17.5975L18.318 1.5753ZM17.648 0.962531L17.3994 0.38755L17.1561 0.962531H17.6467H17.648Z" fill="#004C79"/>
<path id="Vector_2" d="M18.9196 1.5753L18.2762 0.0244673H18.6697L19.1257 1.17213L19.5671 0.0244673H19.9526L19.3078 1.5753H18.9196Z" fill="#004C79"/>
<path id="Vector_3" d="M20.2533 1.5753V0.0244673H20.6162V1.5753H20.2533Z" fill="#004C79"/>
<path id="Vector_4" d="M20.9214 1.07207L21.2751 1.04229C21.2964 1.14423 21.3389 1.21982 21.404 1.26793C21.4692 1.31603 21.5569 1.34009 21.6673 1.34009C21.7843 1.34009 21.872 1.31833 21.9318 1.27595C21.9917 1.23357 22.0209 1.18317 22.0209 1.1259C22.0209 1.08925 22.0089 1.05833 21.9837 1.03198C21.9584 1.00678 21.9146 0.983876 21.8534 0.964405C21.8109 0.951806 21.7138 0.928899 21.5622 0.896828C21.3668 0.855595 21.2312 0.804053 21.1528 0.743348C21.0424 0.657445 20.9866 0.554361 20.9866 0.431806C20.9866 0.352775 21.0132 0.279471 21.065 0.210749C21.1169 0.142026 21.1913 0.0893395 21.2897 0.0538328C21.3881 0.0183262 21.5051 0 21.6433 0C21.8693 0 22.0395 0.0423784 22.1539 0.128282C22.2682 0.214185 22.328 0.327578 22.3333 0.469605L21.9704 0.483349C21.9544 0.403173 21.9212 0.345904 21.8707 0.311543C21.8202 0.277181 21.7431 0.258853 21.6407 0.258853C21.5383 0.258853 21.4519 0.277181 21.3921 0.314978C21.3535 0.339031 21.3349 0.371102 21.3349 0.41119C21.3349 0.447842 21.3522 0.478768 21.3894 0.505111C21.4346 0.538327 21.5463 0.572688 21.7231 0.608195C21.8999 0.643701 22.0302 0.681499 22.1153 0.719296C22.2004 0.758239 22.2669 0.809781 22.3147 0.877359C22.3626 0.943791 22.3865 1.02625 22.3865 1.12476C22.3865 1.2141 22.3573 1.29657 22.3001 1.37445C22.2429 1.45234 22.1618 1.5096 22.0568 1.5474C21.9518 1.5852 21.8215 1.60353 21.6646 1.60353C21.4373 1.60353 21.2618 1.55771 21.1408 1.46723C21.0185 1.37674 20.9467 1.24502 20.9228 1.07093L20.9214 1.07207Z" fill="#004C79"/>
<path id="Vector_5" d="M23.4886 1.5753V0.0244673H24.8234V0.286756H23.8529V0.630369H24.7569V0.891515H23.8529V1.31416H24.858V1.5753H23.4886Z" fill="#004C79"/>
<path id="Vector_6" d="M25.2202 1.5753V0.0244673H25.5738L26.3103 1.05989V0.0244673H26.648V1.5753H26.2837L25.5579 0.563939V1.5753H25.2202Z" fill="#004C79"/>
<path id="Vector_7" d="M27.8419 1.574V0.0357599H28.2049V1.31285H29.1089V1.574H27.8419Z" fill="#004C79"/>
<path id="Vector_8" d="M29.4822 1.5753V0.0244673H29.8451V1.5753H29.4822Z" fill="#004C79"/>
<path id="Vector_9" d="M31.0801 1.00793V0.746784H31.8632V1.36414C31.7874 1.42714 31.677 1.48326 31.5321 1.53137C31.3872 1.57947 31.241 1.60353 31.0934 1.60353C30.9046 1.60353 30.7411 1.56917 30.6015 1.50159C30.4619 1.43401 30.3569 1.33665 30.2864 1.20952C30.216 1.08238 30.1814 0.944937 30.1814 0.796038C30.1814 0.63454 30.2199 0.491367 30.2997 0.365375C30.3782 0.239384 30.4938 0.143174 30.644 0.0767418C30.7597 0.0251998 30.9033 0 31.0748 0C31.2981 0 31.4723 0.0400879 31.5986 0.12141C31.7249 0.202731 31.8047 0.313834 31.8406 0.455861L31.4803 0.514273C31.455 0.437533 31.4072 0.377976 31.3367 0.334451C31.2662 0.290927 31.1798 0.268018 31.0748 0.268018C30.9166 0.268018 30.7903 0.311544 30.6959 0.398592C30.6015 0.485641 30.555 0.613922 30.555 0.784583C30.555 0.968989 30.6028 1.10643 30.6972 1.19921C30.7916 1.29084 30.9166 1.3378 31.0708 1.3378C31.1466 1.3378 31.2237 1.3252 31.2995 1.29886C31.3766 1.27366 31.4417 1.24159 31.4962 1.20493V1.00793H31.0801Z" fill="#004C79"/>
<path id="Vector_10" d="M32.2526 1.5753V0.0244673H32.6063L33.3428 1.05989V0.0244673H33.6805V1.5753H33.3162L32.5903 0.563939V1.5753H32.2526Z" fill="#004C79"/>
<path id="Vector_11" d="M34.115 1.5753V0.0244673H35.4498V0.286756H34.4793V0.630369H35.3833V0.891515H34.4793V1.31416H35.4843V1.5753H34.115Z" fill="#004C79"/>
<path id="Vector_12" d="M8.22573 4.86334V3.3125H8.80936C9.03005 3.3125 9.17496 3.32052 9.24143 3.33541C9.34513 3.35832 9.43154 3.40986 9.50068 3.48774C9.56981 3.56563 9.6057 3.66642 9.6057 3.79012C9.6057 3.88519 9.58576 3.96537 9.54588 4.03065C9.50599 4.09594 9.45415 4.14633 9.39299 4.18299C9.33184 4.21964 9.26802 4.24484 9.20421 4.25629C9.11779 4.27118 8.9915 4.27805 8.82664 4.27805H8.59V4.86334H8.22706H8.22573ZM8.58867 3.57479V4.01462H8.78809C8.93167 4.01462 9.02739 4.0066 9.07525 3.99056C9.12311 3.97453 9.16167 3.94933 9.18825 3.91497C9.21617 3.88061 9.22947 3.84052 9.22947 3.79471C9.22947 3.73858 9.21086 3.69162 9.1723 3.65497C9.13375 3.61832 9.08456 3.59541 9.02606 3.58625C8.98219 3.57937 8.89578 3.57594 8.76416 3.57594H8.58867V3.57479Z" fill="#004C79"/>
<path id="Vector_13" d="M9.95428 4.86334V3.3125H10.7187C10.9115 3.3125 11.0511 3.32624 11.1375 3.35488C11.2252 3.38237 11.2944 3.43277 11.3462 3.50378C11.3981 3.57479 11.4247 3.65611 11.4247 3.74775C11.4247 3.86457 11.3848 3.96078 11.305 4.03638C11.2252 4.11197 11.1069 4.16008 10.9487 4.17955C11.0271 4.21849 11.0923 4.26202 11.1428 4.31013C11.1933 4.35709 11.2625 4.44184 11.3502 4.56211L11.5696 4.86449H11.1348L10.8716 4.5266C10.7785 4.40634 10.7147 4.3296 10.6802 4.29867C10.6456 4.26775 10.6097 4.24598 10.5711 4.23453C10.5326 4.22308 10.4714 4.21735 10.3877 4.21735H10.3146V4.86449H9.95162L9.95428 4.86334ZM10.3185 3.9688H10.5871C10.7613 3.9688 10.8703 3.96193 10.9141 3.94933C10.958 3.93673 10.9913 3.91497 11.0165 3.88405C11.0404 3.85312 11.0537 3.81417 11.0537 3.76721C11.0537 3.71453 11.0378 3.67329 11.0059 3.64122C10.974 3.60915 10.9274 3.58854 10.8689 3.58052C10.8397 3.57708 10.7506 3.57479 10.6031 3.57479H10.3199V3.9688H10.3185Z" fill="#004C79"/>
<path id="Vector_14" d="M11.7453 4.09634C11.7453 3.93828 11.7732 3.80541 11.8277 3.69889C11.8689 3.61986 11.9247 3.54885 11.9952 3.48585C12.0657 3.42286 12.1441 3.37704 12.2279 3.34612C12.3395 3.30488 12.4698 3.28427 12.6161 3.28427C12.8819 3.28427 13.0933 3.35528 13.2529 3.49731C13.4124 3.63933 13.4922 3.83634 13.4922 4.08832C13.4922 4.3403 13.4137 4.53502 13.2555 4.6759C13.0973 4.81678 12.8859 4.8878 12.6214 4.8878C12.3568 4.8878 12.1414 4.81793 11.9832 4.67705C11.825 4.53617 11.7466 4.34259 11.7466 4.09519L11.7453 4.09634ZM12.1188 4.08489C12.1188 4.26013 12.1654 4.39414 12.2598 4.48462C12.3542 4.57511 12.4738 4.62092 12.6187 4.62092C12.7636 4.62092 12.8819 4.57625 12.975 4.48577C13.0681 4.39528 13.1146 4.26127 13.1146 4.08145C13.1146 3.90163 13.0694 3.77105 12.979 3.684C12.8886 3.59696 12.7689 3.55343 12.6187 3.55343C12.4685 3.55343 12.3475 3.5981 12.2571 3.68629C12.1654 3.77449 12.1202 3.9085 12.1202 4.08717L12.1188 4.08489Z" fill="#004C79"/>
<path id="Vector_15" d="M15.0273 4.29105L15.3796 4.38726C15.3251 4.55678 15.236 4.68277 15.1097 4.76409C14.9834 4.84656 14.8252 4.8878 14.6311 4.8878C14.3918 4.8878 14.1951 4.81793 14.0422 4.67705C13.888 4.53617 13.8109 4.34374 13.8109 4.09978C13.8109 3.84207 13.888 3.64163 14.0435 3.49845C14.1977 3.35528 14.4011 3.28427 14.6537 3.28427C14.8744 3.28427 15.0526 3.34039 15.1908 3.45264C15.2733 3.51907 15.3344 3.61414 15.3756 3.73784L15.0154 3.81229C14.9941 3.73211 14.9502 3.66797 14.8824 3.62215C14.8146 3.57519 14.7322 3.55229 14.6365 3.55229C14.5035 3.55229 14.3945 3.59352 14.3121 3.67599C14.2296 3.75845 14.1871 3.89246 14.1871 4.07687C14.1871 4.27273 14.2283 4.41246 14.3094 4.49608C14.3918 4.57969 14.4982 4.62092 14.6285 4.62092C14.7255 4.62092 14.808 4.59458 14.8784 4.54189C14.9476 4.4892 14.9981 4.40559 15.0286 4.2922L15.0273 4.29105Z" fill="#004C79"/>
<path id="Vector_16" d="M15.7414 4.86334V3.3125H17.0761V3.57479H16.1043V3.9184H17.0083V4.17955H16.1043V4.60219H17.1094V4.86334H15.74H15.7414Z" fill="#004C79"/>
<path id="Vector_17" d="M17.3775 4.35822L17.7311 4.32844C17.7524 4.43038 17.7949 4.50598 17.86 4.55408C17.9252 4.60219 18.0129 4.62624 18.1233 4.62624C18.2403 4.62624 18.328 4.60448 18.3878 4.5621C18.4477 4.51972 18.4769 4.46933 18.4769 4.41206C18.4769 4.37541 18.4649 4.34448 18.4397 4.31814C18.4144 4.29179 18.3706 4.27003 18.3094 4.25056C18.2669 4.23796 18.1698 4.21505 18.0183 4.18298C17.8228 4.14175 17.6872 4.09021 17.6088 4.0295C17.4984 3.9436 17.4426 3.84051 17.4426 3.71796C17.4426 3.63893 17.4692 3.56562 17.521 3.4969C17.5729 3.42818 17.6473 3.37549 17.7457 3.33998C17.8441 3.30448 17.9611 3.28615 18.0993 3.28615C18.3254 3.28615 18.4955 3.32853 18.6099 3.41443C18.7242 3.50034 18.784 3.61373 18.7893 3.75576L18.4264 3.7695C18.4104 3.68932 18.3772 3.63205 18.3267 3.59769C18.2762 3.56333 18.1991 3.54501 18.0967 3.54501C17.9943 3.54501 17.9079 3.56333 17.8481 3.60113C17.8095 3.62518 17.7909 3.65725 17.7909 3.69734C17.7909 3.73399 17.8095 3.76492 17.8454 3.79126C17.8906 3.82448 18.0023 3.85884 18.1791 3.89435C18.3559 3.92985 18.4862 3.96765 18.5713 4.00545C18.6564 4.04439 18.7229 4.09593 18.7707 4.16351C18.8186 4.22994 18.8425 4.31241 18.8425 4.41091C18.8425 4.50025 18.8133 4.58272 18.7561 4.6606C18.6989 4.73849 18.6178 4.79576 18.5128 4.83356C18.4078 4.87135 18.2775 4.88968 18.1206 4.88968C17.8933 4.88968 17.7178 4.84386 17.5968 4.75338C17.4745 4.66289 17.4014 4.53118 17.3788 4.35708L17.3775 4.35822Z" fill="#004C79"/>
<path id="Vector_18" d="M19.1062 4.35822L19.4598 4.32844C19.4811 4.43038 19.5236 4.50598 19.5888 4.55408C19.6539 4.60219 19.7416 4.62624 19.852 4.62624C19.969 4.62624 20.0567 4.60448 20.1165 4.5621C20.1764 4.51972 20.2056 4.46933 20.2056 4.41206C20.2056 4.37541 20.1937 4.34448 20.1684 4.31814C20.1431 4.29294 20.0993 4.27003 20.0381 4.25056C19.9956 4.23796 19.8985 4.21505 19.747 4.18298C19.5515 4.14175 19.4159 4.09021 19.3375 4.0295C19.2271 3.9436 19.1713 3.84051 19.1713 3.71796C19.1713 3.63893 19.1979 3.56562 19.2497 3.4969C19.3016 3.42818 19.376 3.37549 19.4744 3.33998C19.5728 3.30448 19.6898 3.28615 19.8281 3.28615C20.0541 3.28615 20.2242 3.32853 20.3386 3.41443C20.4529 3.50034 20.5127 3.61373 20.518 3.75576L20.1551 3.7695C20.1391 3.68932 20.1059 3.63205 20.0554 3.59769C20.0049 3.56333 19.9278 3.54501 19.8254 3.54501C19.723 3.54501 19.6366 3.56333 19.5768 3.60113C19.5382 3.62518 19.5196 3.65725 19.5196 3.69734C19.5196 3.73399 19.5369 3.76492 19.5741 3.79126C19.6193 3.82448 19.731 3.85884 19.9078 3.89435C20.0846 3.92985 20.2149 3.96765 20.3 4.00545C20.3851 4.04439 20.4516 4.09593 20.4994 4.16351C20.5473 4.22994 20.5712 4.31241 20.5712 4.41091C20.5712 4.50025 20.542 4.58272 20.4848 4.6606C20.4276 4.73849 20.3465 4.79576 20.2415 4.83356C20.1365 4.87135 20.0062 4.88968 19.8493 4.88968C19.622 4.88968 19.4465 4.84386 19.3255 4.75338C19.2032 4.66289 19.1314 4.53118 19.1075 4.35708L19.1062 4.35822Z" fill="#004C79"/>
<path id="Vector_19" d="M20.9214 3.31217H21.2844V4.15173C21.2844 4.2846 21.2884 4.37164 21.2977 4.41059C21.3136 4.47358 21.3509 4.52513 21.4094 4.56292C21.4679 4.60187 21.5476 4.62019 21.65 4.62019C21.7524 4.62019 21.8308 4.60187 21.8826 4.56521C21.9345 4.52856 21.9664 4.48389 21.977 4.43121C21.9877 4.37852 21.993 4.29032 21.993 4.16777V3.30988H22.3559V4.12424C22.3559 4.30979 22.3466 4.44151 22.3267 4.51825C22.3067 4.59499 22.2708 4.66028 22.2177 4.71297C22.1645 4.76566 22.094 4.80804 22.0063 4.83896C21.9172 4.86989 21.8029 4.88592 21.6606 4.88592C21.4891 4.88592 21.3588 4.86874 21.2698 4.83438C21.1807 4.80002 21.1102 4.75535 21.0597 4.70151C21.0079 4.64654 20.9746 4.58927 20.9573 4.52971C20.9334 4.44037 20.9214 4.30979 20.9214 4.1357V3.30874V3.31217Z" fill="#004C79"/>
<path id="Vector_20" d="M22.6991 4.35822L23.0527 4.32844C23.074 4.43038 23.1165 4.50598 23.1817 4.55408C23.2468 4.60219 23.3346 4.62624 23.4449 4.62624C23.5619 4.62624 23.6497 4.60448 23.7095 4.5621C23.7693 4.51972 23.7986 4.46933 23.7986 4.41206C23.7986 4.37541 23.7866 4.34448 23.7613 4.31814C23.7361 4.29294 23.6922 4.27003 23.631 4.25056C23.5885 4.23796 23.4915 4.21505 23.3399 4.18298C23.1445 4.14175 23.0089 4.09021 22.9304 4.0295C22.8201 3.9436 22.7642 3.84051 22.7642 3.71796C22.7642 3.63893 22.7908 3.56562 22.8427 3.4969C22.8945 3.42818 22.969 3.37549 23.0674 3.33998C23.1657 3.30448 23.2827 3.28615 23.4223 3.28615C23.6483 3.28615 23.8185 3.32853 23.9328 3.41443C24.0472 3.50034 24.107 3.61373 24.1123 3.75576L23.7494 3.7695C23.7334 3.68932 23.7002 3.63205 23.6497 3.59769C23.5991 3.56333 23.522 3.54501 23.4197 3.54501C23.3173 3.54501 23.2309 3.56333 23.1711 3.60113C23.1325 3.62518 23.1139 3.65725 23.1139 3.69734C23.1139 3.73399 23.1312 3.76492 23.1684 3.79126C23.2136 3.82448 23.3253 3.85884 23.5021 3.89435C23.6789 3.92985 23.8092 3.96765 23.8943 4.00545C23.9794 4.04439 24.0458 4.09593 24.0937 4.16351C24.1416 4.22994 24.1655 4.31241 24.1655 4.41091C24.1655 4.50025 24.1362 4.58272 24.0791 4.6606C24.0219 4.73849 23.9408 4.79576 23.8358 4.83356C23.7308 4.87135 23.6005 4.88968 23.4436 4.88968C23.2163 4.88968 23.0408 4.84386 22.9198 4.75338C22.7975 4.66289 22.7257 4.53118 22.7018 4.35708L22.6991 4.35822Z" fill="#004C79"/>
<path id="Vector_21" d="M25.2653 3.3125H25.9301C26.0803 3.3125 26.1946 3.32281 26.2731 3.34228C26.3781 3.36862 26.4685 3.41673 26.5443 3.48545C26.6201 3.55418 26.6772 3.63779 26.7158 3.73629C26.7557 3.83594 26.7743 3.95735 26.7743 4.10281C26.7743 4.22995 26.7557 4.34105 26.7184 4.43268C26.6732 4.54607 26.6094 4.63656 26.5257 4.70642C26.4632 4.75911 26.3768 4.80034 26.2704 4.83012C26.1906 4.85189 26.083 4.86334 25.9487 4.86334H25.2653V3.3125ZM25.6283 3.57479V4.60219H25.8995C26.0005 4.60219 26.0737 4.59761 26.1189 4.5873C26.1774 4.57471 26.2265 4.55294 26.2651 4.52316C26.3036 4.49338 26.3356 4.44299 26.3608 4.37312C26.3847 4.30325 26.398 4.20933 26.398 4.08906C26.398 3.9688 26.3861 3.87717 26.3608 3.81303C26.3369 3.74889 26.3023 3.69849 26.2571 3.66298C26.2132 3.62748 26.1574 3.60228 26.0883 3.58968C26.0378 3.57937 25.938 3.57479 25.7905 3.57479H25.627H25.6283Z" fill="#004C79"/>
<path id="Vector_22" d="M27.1343 4.86334V3.3125H28.469V3.57479H27.4985V3.9184H28.4026V4.17955H27.4985V4.60219H28.5036V4.86334H27.1343Z" fill="#004C79"/>
<path id="Vector_23" d="M30.7617 4.29105L31.114 4.38726C31.0595 4.55678 30.9704 4.68277 30.8441 4.76409C30.7178 4.84656 30.5596 4.8878 30.3655 4.8878C30.1262 4.8878 29.9295 4.81793 29.7766 4.67705C29.6223 4.53617 29.5452 4.34374 29.5452 4.09978C29.5452 3.84207 29.6224 3.64163 29.7779 3.49845C29.9321 3.35528 30.1355 3.28427 30.3881 3.28427C30.6088 3.28427 30.7869 3.34039 30.9252 3.45264C31.0076 3.51907 31.0688 3.61414 31.11 3.73784L30.7497 3.81229C30.7285 3.73211 30.6846 3.66797 30.6168 3.62215C30.549 3.57519 30.4666 3.55229 30.3708 3.55229C30.2379 3.55229 30.1289 3.59352 30.0464 3.67599C29.964 3.75845 29.9215 3.89246 29.9215 4.07687C29.9215 4.27273 29.9627 4.41246 30.0438 4.49608C30.1262 4.57969 30.2326 4.62092 30.3629 4.62092C30.4599 4.62092 30.5423 4.59458 30.6115 4.54189C30.6806 4.4892 30.7311 4.40559 30.7617 4.2922V4.29105Z" fill="#004C79"/>
<path id="Vector_24" d="M31.4029 4.09634C31.4029 3.93828 31.4308 3.80541 31.4853 3.69889C31.5265 3.61986 31.5824 3.54885 31.6528 3.48585C31.7233 3.42286 31.8017 3.37704 31.8855 3.34612C31.9971 3.30488 32.1274 3.28427 32.2737 3.28427C32.5396 3.28427 32.7509 3.35528 32.9105 3.49731C33.07 3.63933 33.1498 3.83634 33.1498 4.08832C33.1498 4.3403 33.0713 4.53502 32.9131 4.6759C32.7549 4.81678 32.5435 4.8878 32.279 4.8878C32.0144 4.8878 31.7991 4.81793 31.6408 4.67705C31.4826 4.53617 31.4042 4.34259 31.4042 4.09519L31.4029 4.09634ZM31.7765 4.08489C31.7765 4.26013 31.823 4.39414 31.9174 4.48462C32.0118 4.57511 32.1314 4.62092 32.2763 4.62092C32.4212 4.62092 32.5396 4.57625 32.6326 4.48577C32.7257 4.39528 32.7722 4.26127 32.7722 4.08145C32.7722 3.90163 32.727 3.77105 32.6366 3.684C32.5462 3.59696 32.4266 3.55343 32.2763 3.55343C32.1261 3.55343 32.0064 3.5981 31.9147 3.68629C31.823 3.77449 31.7778 3.9085 31.7778 4.08717L31.7765 4.08489Z" fill="#004C79"/>
<path id="Vector_25" d="M33.493 4.86391V3.32567H33.8559V4.60277H34.7599V4.86391H33.493Z" fill="#004C79"/>
<path id="Vector_26" d="M35.0786 4.86391V3.32567H35.4416V4.60277H36.3456V4.86391H35.0786Z" fill="#004C79"/>
<path id="Vector_27" d="M36.6558 4.86334V3.3125H37.9906V3.57479H37.0201V3.9184H37.9241V4.17955H37.0201V4.60219H38.0252V4.86334H36.6558Z" fill="#004C79"/>
<path id="Vector_28" d="M39.5342 4.29105L39.8865 4.38726C39.832 4.55678 39.7429 4.68277 39.6166 4.76409C39.4903 4.84656 39.3321 4.8878 39.138 4.8878C38.8987 4.8878 38.7019 4.81793 38.549 4.67705C38.3948 4.53617 38.3177 4.34374 38.3177 4.09978C38.3177 3.84207 38.3948 3.64163 38.5504 3.49845C38.7046 3.35528 38.908 3.28427 39.1606 3.28427C39.3813 3.28427 39.5594 3.34039 39.6977 3.45264C39.7801 3.51907 39.8413 3.61414 39.8825 3.73784L39.5222 3.81229C39.5009 3.73211 39.4571 3.66797 39.3893 3.62215C39.3215 3.57519 39.239 3.55229 39.1433 3.55229C39.0104 3.55229 38.9014 3.59352 38.8189 3.67599C38.7365 3.75845 38.694 3.89246 38.694 4.07687C38.694 4.27273 38.7352 4.41246 38.8163 4.49608C38.8987 4.57969 39.005 4.62092 39.1353 4.62092C39.2324 4.62092 39.3148 4.59458 39.3839 4.54189C39.4531 4.4892 39.5036 4.40559 39.5342 4.2922V4.29105Z" fill="#004C79"/>
<path id="Vector_29" d="M40.6552 4.86334V3.57479H40.1208V3.3125H41.5513V3.57479H41.0182V4.86334H40.6552Z" fill="#004C79"/>
<path id="Vector_30" d="M41.8363 4.86334V3.3125H43.1711V3.57479H42.2006V3.9184H43.1046V4.17955H42.2006V4.60219H43.2056V4.86334H41.8363Z" fill="#004C79"/>
<path id="Vector_31" d="M43.5511 4.56598H43.8968V4.77902C43.8968 4.86492 43.8875 4.9325 43.8715 4.9829C43.8543 5.03215 43.8224 5.07682 43.7745 5.11691C43.7266 5.15585 43.6655 5.18792 43.5924 5.20968L43.5246 5.08713C43.5937 5.06765 43.6442 5.04017 43.6735 5.0058C43.7027 4.97144 43.7187 4.92448 43.72 4.86378H43.5525V4.56598H43.5511Z" fill="#004C79"/>
<path id="Vector_32" d="M1.66459e-06 7.46252V5.91168H0.543749L0.870794 6.97001L1.19385 5.91168H1.73893V7.46252H1.40125V6.24155L1.04362 7.46252H0.693977L0.337683 6.24155V7.46252H1.66459e-06Z" fill="#004C79"/>
<path id="Vector_33" d="M2.07596 6.69552C2.07596 6.53746 2.10388 6.4046 2.15839 6.29808C2.1996 6.21905 2.25544 6.14803 2.3259 6.08504C2.39636 6.02204 2.4748 5.97622 2.55855 5.9453C2.67023 5.90407 2.80051 5.88345 2.94675 5.88345C3.21264 5.88345 3.42403 5.95446 3.58356 6.09649C3.7431 6.23852 3.82286 6.43552 3.82286 6.6875C3.82286 6.93949 3.74443 7.1342 3.58622 7.27508C3.42802 7.41596 3.21663 7.48698 2.95207 7.48698C2.68751 7.48698 2.47214 7.41711 2.31393 7.27623C2.15573 7.13535 2.07729 6.94178 2.07729 6.69438L2.07596 6.69552ZM2.44954 6.68522C2.44954 6.86046 2.49607 6.99447 2.59046 7.08495C2.68485 7.17544 2.8045 7.22125 2.94941 7.22125C3.09432 7.22125 3.21264 7.17658 3.30571 7.0861C3.39877 6.99561 3.4453 6.8616 3.4453 6.68178C3.4453 6.50196 3.4001 6.37138 3.30969 6.28433C3.21929 6.19728 3.09964 6.15376 2.94941 6.15376C2.79918 6.15376 2.6782 6.19843 2.5878 6.28662C2.49607 6.37482 2.45087 6.50883 2.45087 6.6875L2.44954 6.68522Z" fill="#004C79"/>
<path id="Vector_34" d="M4.15474 5.91168H4.81947C4.9697 5.91168 5.08403 5.92199 5.16247 5.94146C5.2675 5.96781 5.3579 6.01591 5.43368 6.08464C5.50946 6.15336 5.56662 6.23697 5.60518 6.33547C5.64506 6.43512 5.66367 6.55653 5.66367 6.70199C5.66367 6.82913 5.64506 6.94023 5.60784 7.03186C5.56263 7.14525 5.49882 7.23574 5.41507 7.3056C5.35258 7.35829 5.2675 7.39953 5.15981 7.42931C5.08004 7.45107 4.97236 7.46252 4.83808 7.46252H4.15474V5.91168ZM4.51768 6.17398V7.20138H4.78889C4.88993 7.20138 4.96305 7.1968 5.00825 7.18649C5.06675 7.17389 5.11594 7.15213 5.15449 7.12235C5.19305 7.09257 5.22495 7.04217 5.25021 6.9723C5.27547 6.90244 5.28744 6.80851 5.28744 6.68825C5.28744 6.56798 5.27547 6.47635 5.25021 6.41221C5.22628 6.34807 5.19172 6.29767 5.14652 6.26217C5.10264 6.22666 5.04681 6.20146 4.97768 6.18886C4.92716 6.17855 4.82745 6.17398 4.67988 6.17398H4.51635H4.51768Z" fill="#004C79"/>
<path id="Vector_35" d="M6.02312 7.46522V5.91438H7.35789V6.17667H6.38606V6.52028H7.29009V6.78143H6.38606V7.20407H7.39113V7.46522H6.02179H6.02312ZM6.48444 5.82504L6.65328 5.50891H7.04015L6.70247 5.82504H6.48444Z" fill="#004C79"/>
<path id="Vector_36" d="M7.75222 7.46252V5.91168H8.51665C8.70943 5.91168 8.84902 5.92543 8.93543 5.95406C9.02318 5.98155 9.09231 6.03195 9.14416 6.10296C9.19601 6.17397 9.22259 6.25529 9.22259 6.34693C9.22259 6.46375 9.18271 6.55997 9.10294 6.63556C9.02318 6.71116 8.90485 6.75926 8.74665 6.77873C8.82509 6.81768 8.89023 6.8612 8.94075 6.90931C8.99127 6.95627 9.0604 7.04102 9.14815 7.16129L9.36751 7.46367H8.93277L8.66954 7.12578C8.57648 7.00552 8.51267 6.92878 8.4781 6.89785C8.44353 6.86693 8.40764 6.84516 8.36908 6.83371C8.33053 6.82226 8.26938 6.81653 8.18562 6.81653H8.1125V7.46367H7.74956L7.75222 7.46252ZM8.11649 6.56799H8.38504C8.5592 6.56799 8.66821 6.56111 8.71208 6.54851C8.75596 6.53591 8.78919 6.51415 8.81445 6.48323C8.83838 6.4523 8.85168 6.41336 8.85168 6.3664C8.85168 6.31371 8.83572 6.27248 8.80382 6.24041C8.77191 6.20834 8.72538 6.18772 8.66688 6.1797C8.63763 6.17626 8.54856 6.17398 8.40099 6.17398H8.11782V6.56799H8.11649Z" fill="#004C79"/>
<path id="Vector_37" d="M11.2385 7.46252H10.8436L10.6868 7.10975H9.96754L9.81864 7.46252H9.4331L10.1337 5.91168H10.5179L11.2385 7.46252ZM10.5698 6.8486L10.3212 6.27362L10.0779 6.8486H10.5685H10.5698Z" fill="#004C79"/>
<path id="Vector_38" d="M11.7113 7.46252V6.17398H11.1769V5.91168H12.6074V6.17398H12.0742V7.46252H11.7113Z" fill="#004C79"/>
<path id="Vector_39" d="M12.8811 7.46252V5.91168H13.244V7.46252H12.8811Z" fill="#004C79"/>
<path id="Vector_40" d="M13.569 6.69552C13.569 6.53746 13.5969 6.4046 13.6514 6.29808C13.6927 6.21905 13.7485 6.14803 13.819 6.08504C13.8894 6.02204 13.9679 5.97622 14.0516 5.9453C14.1633 5.90407 14.2936 5.88345 14.4398 5.88345C14.7057 5.88345 14.9171 5.95446 15.0766 6.09649C15.2362 6.23852 15.3159 6.43552 15.3159 6.6875C15.3159 6.93949 15.2375 7.1342 15.0793 7.27508C14.9211 7.41596 14.7097 7.48698 14.4451 7.48698C14.1806 7.48698 13.9652 7.41711 13.807 7.27623C13.6488 7.13535 13.5703 6.94178 13.5703 6.69438L13.569 6.69552ZM13.9426 6.68522C13.9426 6.86046 13.9891 6.99447 14.0835 7.08495C14.1779 7.17544 14.2976 7.22125 14.4425 7.22125C14.5874 7.22125 14.7057 7.17658 14.7988 7.0861C14.8918 6.99561 14.9384 6.8616 14.9384 6.68178C14.9384 6.50196 14.8932 6.37138 14.8028 6.28433C14.7123 6.19728 14.5927 6.15376 14.4425 6.15376C14.2922 6.15376 14.1713 6.19843 14.0809 6.28662C13.9891 6.37482 13.9439 6.50883 13.9439 6.6875L13.9426 6.68522Z" fill="#004C79"/>
<path id="Vector_41" d="M15.6506 7.46252V5.91168H16.0043L16.7408 6.9471V5.91168H17.0785V7.46252H16.7142L15.9883 6.45115V7.46252H15.6506Z" fill="#004C79"/>
<path id="Vector_42" d="M18.263 7.46252V5.91168H19.5978V6.17398H18.6273V6.51759H19.5313V6.77873H18.6273V7.20138H19.6323V7.46252H18.263Z" fill="#004C79"/>
<path id="Vector_43" d="M20.3963 7.46252V6.17398H19.8618V5.91168H21.2923V6.17398H20.7592V7.46252H20.3963Z" fill="#004C79"/>
<path id="Vector_44" d="M22.3259 7.46252V5.91168H23.0903C23.2831 5.91168 23.4227 5.92543 23.5091 5.95406C23.5968 5.98155 23.666 6.03195 23.7192 6.10296C23.771 6.17397 23.7976 6.25529 23.7976 6.34693C23.7976 6.46375 23.7577 6.55997 23.6779 6.63556C23.5982 6.71116 23.4799 6.75926 23.3216 6.77873C23.4001 6.81768 23.4652 6.8612 23.5158 6.90931C23.5663 6.95627 23.6354 7.04102 23.7231 7.16129L23.9425 7.46367H23.5078L23.2445 7.12578C23.1515 7.00552 23.0877 6.92878 23.0531 6.89785C23.0185 6.86693 22.9826 6.84516 22.9441 6.83371C22.9055 6.82226 22.8444 6.81653 22.7606 6.81653H22.6875V7.46367H22.3246L22.3259 7.46252ZM22.6902 6.56799H22.9587C23.1329 6.56799 23.2419 6.56111 23.2858 6.54851C23.3296 6.53591 23.3629 6.51415 23.3881 6.48323C23.4121 6.4523 23.4253 6.41336 23.4253 6.3664C23.4253 6.31371 23.4094 6.27248 23.3762 6.24041C23.3443 6.20834 23.2977 6.18772 23.2392 6.1797C23.21 6.17626 23.1209 6.17398 22.9733 6.17398H22.6902V6.56799Z" fill="#004C79"/>
<path id="Vector_45" d="M24.2678 7.46252V5.91168H25.6026V6.17398H24.6321V6.51759H25.5361V6.77873H24.6321V7.20138H25.6372V7.46252H24.2678Z" fill="#004C79"/>
<path id="Vector_46" d="M25.9043 6.95553L26.258 6.92574C26.2792 7.02768 26.3218 7.10328 26.3869 7.15138C26.4521 7.19949 26.5398 7.22354 26.6501 7.22354C26.7671 7.22354 26.8549 7.20178 26.9147 7.1594C26.9745 7.11702 27.0038 7.06663 27.0038 7.00936C27.0038 6.97271 26.9918 6.94178 26.9666 6.91544C26.9413 6.89024 26.8974 6.86733 26.8363 6.84786C26.7937 6.83526 26.6967 6.81235 26.5451 6.78028C26.3497 6.73905 26.2141 6.68751 26.1356 6.6268C26.0253 6.5409 25.9695 6.43782 25.9695 6.31526C25.9695 6.23623 25.996 6.16292 26.0479 6.0942C26.0997 6.02548 26.1742 5.97279 26.2726 5.93728C26.371 5.90178 26.4879 5.88345 26.6275 5.88345C26.8535 5.88345 27.0237 5.92583 27.138 6.01173C27.2524 6.09764 27.3122 6.21103 27.3175 6.35306L26.9546 6.3668C26.9386 6.28662 26.9054 6.22936 26.8549 6.19499C26.8044 6.16063 26.7272 6.14231 26.6249 6.14231C26.5225 6.14231 26.4361 6.16063 26.3763 6.19843C26.3377 6.22248 26.3191 6.25455 26.3191 6.29464C26.3191 6.33129 26.3364 6.36222 26.3736 6.38856C26.4188 6.42178 26.5305 6.45614 26.7073 6.49165C26.8841 6.52715 27.0144 6.56495 27.0995 6.60275C27.1846 6.64169 27.2511 6.69323 27.2989 6.76081C27.3468 6.82724 27.3707 6.90971 27.3707 7.00821C27.3707 7.09755 27.3415 7.18002 27.2843 7.2579C27.2271 7.33579 27.146 7.39306 27.041 7.43086C26.936 7.46865 26.8057 7.48698 26.6488 7.48698C26.4215 7.48698 26.246 7.44116 26.125 7.35068C26.0027 7.26019 25.9309 7.12848 25.907 6.95438L25.9043 6.95553Z" fill="#004C79"/>
<path id="Vector_47" d="M28.0781 7.46252V6.17398H27.5436V5.91168H28.9741V6.17398H28.441V7.46252H28.0781Z" fill="#004C79"/>
<path id="Vector_48" d="M29.2479 7.46252V5.91168H29.6108V7.46252H29.2479Z" fill="#004C79"/>
<path id="Vector_49" d="M30.4138 7.46252V6.17398H29.8793V5.91168H31.3098V6.17398H30.7767V7.46252H30.4138Z" fill="#004C79"/>
<path id="Vector_50" d="M31.592 5.91324H31.955V6.7528C31.955 6.88566 31.959 6.97271 31.9683 7.01165C31.9842 7.07465 32.0214 7.12619 32.0799 7.16399C32.1384 7.20293 32.2182 7.22126 32.3206 7.22126C32.4229 7.22126 32.5014 7.20293 32.5532 7.16628C32.6051 7.12963 32.637 7.08496 32.6476 7.03227C32.6583 6.97958 32.6636 6.89139 32.6636 6.76883V5.91095H33.0265V6.72531C33.0265 6.91086 33.0172 7.04258 32.9973 7.11932C32.9773 7.19606 32.9414 7.26135 32.8882 7.31403C32.8351 7.36672 32.7646 7.4091 32.6769 7.44002C32.5878 7.47095 32.4735 7.48698 32.3312 7.48698C32.1597 7.48698 32.0294 7.4698 31.9403 7.43544C31.8513 7.40108 31.7808 7.35641 31.7303 7.30258C31.6784 7.2476 31.6452 7.19033 31.6279 7.13077C31.604 7.04143 31.592 6.91086 31.592 6.73676V5.9098V5.91324Z" fill="#004C79"/>
<path id="Vector_51" d="M33.8646 7.46252V6.17398H33.3302V5.91168H34.7606V6.17398H34.2275V7.46252H33.8646Z" fill="#004C79"/>
<path id="Vector_52" d="M35.0353 7.46252V5.91168H35.3983V7.46252H35.0353Z" fill="#004C79"/>
<path id="Vector_53" d="M35.7223 6.69552C35.7223 6.53746 35.7502 6.4046 35.8047 6.29808C35.8459 6.21905 35.9018 6.14803 35.9722 6.08504C36.0427 6.02204 36.1211 5.97622 36.2049 5.9453C36.3166 5.90407 36.4469 5.88345 36.5931 5.88345C36.859 5.88345 37.0704 5.95446 37.2299 6.09649C37.3894 6.23852 37.4692 6.43552 37.4692 6.6875C37.4692 6.93949 37.3908 7.1342 37.2326 7.27508C37.0744 7.41596 36.863 7.48698 36.5984 7.48698C36.3339 7.48698 36.1185 7.41711 35.9603 7.27623C35.8021 7.13535 35.7236 6.94178 35.7236 6.69438L35.7223 6.69552ZM36.0959 6.68522C36.0959 6.86046 36.1424 6.99447 36.2368 7.08495C36.3312 7.17544 36.4508 7.22125 36.5958 7.22125C36.7407 7.22125 36.859 7.17658 36.952 7.0861C37.0451 6.99561 37.0916 6.8616 37.0916 6.68178C37.0916 6.50196 37.0464 6.37138 36.956 6.28433C36.8656 6.19728 36.746 6.15376 36.5958 6.15376C36.4455 6.15376 36.3259 6.19843 36.2341 6.28662C36.1424 6.37482 36.0972 6.50883 36.0972 6.6875L36.0959 6.68522Z" fill="#004C79"/>
<path id="Vector_54" d="M37.8048 7.46252V5.91168H38.1585L38.895 6.9471V5.91168H39.2327V7.46252H38.8684L38.1425 6.45115V7.46252H37.8048Z" fill="#004C79"/>
<path id="Vector_55" d="M40.4163 5.91168H41.081C41.2312 5.91168 41.3456 5.92199 41.424 5.94146C41.529 5.96781 41.6194 6.01591 41.6952 6.08464C41.771 6.15336 41.8281 6.23697 41.8667 6.33547C41.9066 6.43512 41.9252 6.55653 41.9252 6.70199C41.9252 6.82913 41.9066 6.94023 41.8694 7.03186C41.8242 7.14525 41.7603 7.23574 41.6766 7.3056C41.6141 7.35829 41.5277 7.39953 41.4213 7.42931C41.3416 7.45107 41.2339 7.46252 41.0996 7.46252H40.4163V5.91168ZM40.7792 6.17398V7.20138H41.0504C41.1515 7.20138 41.2246 7.1968 41.2698 7.18649C41.3283 7.17389 41.3775 7.15213 41.416 7.12235C41.4546 7.09257 41.4865 7.04217 41.5117 6.9723C41.5357 6.90244 41.549 6.80851 41.549 6.68825C41.549 6.56798 41.537 6.47635 41.5117 6.41221C41.4878 6.34807 41.4532 6.29767 41.408 6.26217C41.3642 6.22666 41.3083 6.20146 41.2392 6.18886C41.1887 6.17855 41.089 6.17398 40.9414 6.17398H40.7779H40.7792Z" fill="#004C79"/>
<path id="Vector_56" d="M42.2824 7.46252V5.91168H43.6171V6.17398H42.6466V6.51759H43.5507V6.77873H42.6466V7.20138H43.6517V7.46252H42.2824Z" fill="#004C79"/>
<path id="Vector_57" d="M43.9179 6.95553L44.2716 6.92574C44.2928 7.02768 44.3354 7.10328 44.4005 7.15138C44.4657 7.19949 44.5534 7.22354 44.6637 7.22354C44.7807 7.22354 44.8685 7.20178 44.9283 7.1594C44.9881 7.11702 45.0174 7.06663 45.0174 7.00936C45.0174 6.97271 45.0054 6.94178 44.9801 6.91544C44.9549 6.89024 44.911 6.86733 44.8499 6.84786C44.8073 6.83526 44.7103 6.81235 44.5587 6.78028C44.3633 6.73905 44.2277 6.68751 44.1492 6.6268C44.0389 6.5409 43.9831 6.43782 43.9831 6.31526C43.9831 6.23623 44.0096 6.16292 44.0615 6.0942C44.1133 6.02548 44.1878 5.97279 44.2862 5.93728C44.3846 5.90178 44.5015 5.88345 44.6411 5.88345C44.8671 5.88345 45.0373 5.92583 45.1516 6.01173C45.266 6.09764 45.3258 6.21103 45.3311 6.35306L44.9682 6.3668C44.9522 6.28662 44.919 6.22936 44.8685 6.19499C44.818 6.16063 44.7408 6.14231 44.6385 6.14231C44.5361 6.14231 44.4497 6.16063 44.3899 6.19843C44.3513 6.22248 44.3327 6.25455 44.3327 6.29464C44.3327 6.33129 44.35 6.36222 44.3872 6.38856C44.4324 6.42178 44.5441 6.45614 44.7209 6.49165C44.8977 6.52715 45.028 6.56495 45.1131 6.60275C45.1982 6.64169 45.2647 6.69323 45.3125 6.76081C45.3604 6.82724 45.3843 6.90971 45.3843 7.00821C45.3843 7.09755 45.3551 7.18002 45.2979 7.2579C45.2407 7.33579 45.1596 7.39306 45.0546 7.43086C44.9496 7.46865 44.8193 7.48698 44.6624 7.48698C44.4351 7.48698 44.2596 7.44116 44.1386 7.35068C44.0163 7.26019 43.9445 7.12848 43.9206 6.95438L43.9179 6.95553Z" fill="#004C79"/>
<path id="Vector_58" d="M48.1098 7.46252H47.715L47.5581 7.10975H46.8389L46.69 7.46252H46.3044L47.005 5.91168H47.3893L48.1098 7.46252ZM47.4411 6.8486L47.1925 6.27362L46.9492 6.8486H47.4398H47.4411Z" fill="#004C79"/>
<path id="Vector_59" d="M48.7123 7.46252L48.0689 5.91168H48.4624L48.9184 7.05935L49.3598 5.91168H49.7453L49.1006 7.46252H48.7123Z" fill="#004C79"/>
<path id="Vector_60" d="M50.046 7.46252V5.91168H50.409V7.46252H50.046Z" fill="#004C79"/>
<path id="Vector_61" d="M50.7123 6.95553L51.0659 6.92574C51.0872 7.02768 51.1298 7.10328 51.1949 7.15138C51.26 7.19949 51.3478 7.22354 51.4581 7.22354C51.5751 7.22354 51.6629 7.20178 51.7227 7.1594C51.7825 7.11702 51.8118 7.06663 51.8118 7.00936C51.8118 6.97271 51.7998 6.94178 51.7745 6.91544C51.7493 6.89024 51.7054 6.86733 51.6443 6.84786C51.6017 6.83526 51.5047 6.81235 51.3531 6.78028C51.1577 6.73905 51.0221 6.68751 50.9436 6.6268C50.8333 6.5409 50.7774 6.43782 50.7774 6.31526C50.7774 6.23623 50.804 6.16292 50.8559 6.0942C50.9077 6.02548 50.9822 5.97279 51.0806 5.93728C51.1789 5.90178 51.2959 5.88345 51.4355 5.88345C51.6615 5.88345 51.8317 5.92583 51.946 6.01173C52.0604 6.09764 52.1202 6.21103 52.1255 6.35306L51.7626 6.3668C51.7466 6.28662 51.7134 6.22936 51.6629 6.19499C51.6123 6.16063 51.5352 6.14231 51.4329 6.14231C51.3305 6.14231 51.2441 6.16063 51.1843 6.19843C51.1457 6.22248 51.1271 6.25455 51.1271 6.29464C51.1271 6.33129 51.1444 6.36222 51.1816 6.38856C51.2268 6.42178 51.3385 6.45614 51.5153 6.49165C51.6921 6.52715 51.8224 6.56495 51.9075 6.60275C51.9926 6.64169 52.059 6.69323 52.1069 6.76081C52.1548 6.82724 52.1787 6.90971 52.1787 7.00821C52.1787 7.09755 52.1494 7.18002 52.0923 7.2579C52.0351 7.33579 51.954 7.39306 51.849 7.43086C51.744 7.46865 51.6137 7.48698 51.4568 7.48698C51.2295 7.48698 51.054 7.44116 50.933 7.35068C50.8107 7.26019 50.7389 7.12848 50.715 6.95438L50.7123 6.95553Z" fill="#004C79"/>
</g>
</svg>
