<svg preserveAspectRatio="none" overflow="visible" style="display: block;" width="36" height="36" viewBox="0 0 36 36" fill="none" xmlns="http://www.w3.org/2000/svg">
<g id="Group">
<g id="Group_2">
<path id="Vector" d="M32.1898 18C32.1898 26.1696 25.2857 32.7267 16.9939 32.155C9.99676 31.6726 4.32786 26.004 3.84503 19.0069C3.27284 10.7148 9.83011 3.81024 17.9999 3.81024C20.4675 3.81024 22.7873 4.44104 24.8086 5.54874L27.4921 2.70752C24.4466 0.813096 20.7965 -0.200581 16.895 0.0331555C7.86485 0.574146 0.556384 7.8935 0.0313141 16.9246C-0.245764 21.6903 1.33241 26.0838 4.1107 29.4501L2.35618 35.2167C2.23921 35.6011 2.57947 35.9693 2.97194 35.8829L10.2972 34.2706C12.8771 35.4942 15.7929 36.1248 18.8701 35.9794C28.1225 35.5422 35.6184 27.9842 35.9855 18.7287C36.1262 15.1818 35.2346 11.8553 33.5947 9.01514L31.1609 12.6956C31.8223 14.3347 32.1898 16.1239 32.1898 18Z" fill="white"/>
</g>
<path id="Vector_2" d="M34.2435 0.688872L18.016 17.871L12.4937 13.0997L10.8578 14.7355L8.61856 17.0696L18.016 26.1879L34.6597 1.01783C34.8377 0.746156 34.4668 0.452989 34.2435 0.688872Z" fill="#23AD85"/>
</g>
</svg>
